<svg width="20" height="20" viewBox="0 0 20 20" fill="none" xmlns="http://www.w3.org/2000/svg">
<g opacity="0.5">
<path fill-rule="evenodd" clip-rule="evenodd" d="M12.0833 4.16805H3.75C3.51988 4.16805 3.33333 4.3546 3.33333 4.58472V14.5847C3.33333 14.8148 3.51988 15.0014 3.75 15.0014H5.04161C5.23451 14.0503 6.07532 13.3344 7.08333 13.3344C8.09135 13.3344 8.93215 14.0503 9.12506 15.0014H10.8749C11.0405 14.1849 11.6836 13.5418 12.5 13.3761V7.91805V4.58472C12.5 4.3546 12.3135 4.16805 12.0833 4.16805ZM13.3333 13.3761C14.1497 13.5418 14.7928 14.1849 14.9584 15.0014H16.6667V10.8882L14.3983 8.33472H13.3333V13.3761ZM14.9583 15.8347H17.0833C17.3135 15.8347 17.5 15.6482 17.5 15.4181V10.7299C17.5 10.6279 17.4626 10.5294 17.3948 10.4532L14.897 7.64133C14.818 7.55232 14.7046 7.50138 14.5855 7.50138H13.3333V4.58472C13.3333 3.89436 12.7737 3.33472 12.0833 3.33472H3.75C3.05964 3.33472 2.5 3.89436 2.5 4.58472V14.5847C2.5 15.2751 3.05964 15.8347 3.75 15.8347H5.04174C5.2349 16.7855 6.07555 17.5011 7.08333 17.5011C8.09112 17.5011 8.93177 16.7855 9.12493 15.8347H10.8751C11.0682 16.7855 11.9089 17.5011 12.9167 17.5011C13.9245 17.5011 14.7651 16.7855 14.9583 15.8347ZM7.08333 16.6677C7.77369 16.6677 8.33333 16.1081 8.33333 15.4177C8.33333 14.7274 7.77369 14.1677 7.08333 14.1677C6.39298 14.1677 5.83333 14.7274 5.83333 15.4177C5.83333 16.1081 6.39298 16.6677 7.08333 16.6677ZM12.9167 16.6677C13.607 16.6677 14.1667 16.1081 14.1667 15.4177C14.1667 14.7274 13.607 14.1677 12.9167 14.1677C12.2263 14.1677 11.6667 14.7274 11.6667 15.4177C11.6667 16.1081 12.2263 16.6677 12.9167 16.6677Z" fill="#02121A"/>
</g>
</svg>
