<svg width="20" height="20" viewBox="0 0 20 20" fill="none" xmlns="http://www.w3.org/2000/svg">
<g opacity="0.5">
<path fill-rule="evenodd" clip-rule="evenodd" d="M15.0013 7.49935C15.0013 10.2608 12.7627 12.4993 10.0013 12.4993C7.23988 12.4993 5.0013 10.2608 5.0013 7.49935C5.0013 4.73793 7.23988 2.49935 10.0013 2.49935C12.7627 2.49935 15.0013 4.73793 15.0013 7.49935ZM12.918 12.5523C12.06 13.0486 11.0638 13.3327 10.0013 13.3327C8.9388 13.3327 7.94264 13.0486 7.08464 12.5523V16.8252L9.62862 15.5532C9.86323 15.4359 10.1394 15.4359 10.374 15.5532L12.918 16.8252V12.5523ZM13.7513 11.9678C15.025 10.8977 15.8346 9.29308 15.8346 7.49935C15.8346 4.27769 13.223 1.66602 10.0013 1.66602C6.77964 1.66602 4.16797 4.27769 4.16797 7.49935C4.16797 9.29308 4.97757 10.8977 6.2513 11.9678V16.8252C6.2513 17.4447 6.90323 17.8476 7.45731 17.5705L10.0013 16.2985L12.5453 17.5705C13.0994 17.8476 13.7513 17.4447 13.7513 16.8252V11.9678Z" fill="black"/>
</g>
</svg>
